# xmcd
#
# Track frame offsets:
#	150
#	20670
#	46334
#	55527
#	71461
#	90633
#	102786
#	119873
#	135089
#	147372
#	164818
#	177695
#	200497
#	213762
#	236328
#	250610
#	263000
#	286229
#	312463
#	334656
#
# Disc length: 4676 seconds
#
# Revision: 2
# Processed by: cddbd v1.5.2PL0 Copyright (c) Steve Scherf et al.
# Submitted via: audiograbber 1.83.01
#
DISCID=23124214
DTITLE=Various Artist - The Alternative Album Vol. 6
DYEAR=2008
DGENRE=Alternative
TTITLE0=Coldplay - Twisted Logic
TTITLE1=Interpol - Pioneer To The Falls
TTITLE2=The Kooks - If Only
TTITLE3=Supergrass - Outside
TTITLE4=Graham Coxon - I Don't Wanna Go Out
TTITLE5=Babyshambles - Delivery
TTITLE6=Grinderman - Depth Charge Ethel
TTITLE7=Liars - Houseclouds
TTITLE8=Air Traffic - Never Even Told Me Her Name
TTITLE9=We Are Scientists - After Hours
TTITLE10=Art Brut - Pump Up The Volume
TTITLE11=Athlete - Airport Disco
TTITLE12=The Thrills - This Year
TTITLE13=The Magic Numbers - Runnin' Out
TTITLE14=KT Tunstall - Little Favours
TTITLE15=The Bees - Hot One!
TTITLE16=The Aliens - Setting Sun
TTITLE17=Tiny Dancers - Moonsong #2
TTITLE18=Sigur Rós - Hljómalind
TTITLE19=Bat For Lashes - Prescilla
EXTD=
EXTT0=
EXTT1=
EXTT2=
EXTT3=
EXTT4=
EXTT5=
EXTT6=
EXTT7=
EXTT8=
EXTT9=
EXTT10=
EXTT11=
EXTT12=
EXTT13=
EXTT14=
EXTT15=
EXTT16=
EXTT17=
EXTT18=
EXTT19=
PLAYORDER=
